<?xml version="1.0" encoding="utf-8"?>
<!-- Generator: Adobe Illustrator 21.1.0, SVG Export Plug-In . SVG Version: 6.00 Build 0)  -->
<svg version="1.1" id="Capa_1" xmlns="http://www.w3.org/2000/svg" xmlns:xlink="http://www.w3.org/1999/xlink" x="0px" y="0px"
	 viewBox="0 0 32 32" style="enable-background:new 0 0 32 32;" xml:space="preserve">
<g>
	<path d="M31.5,14.6h-7.8v-1.2h2.8c0.9,0,1.6-0.7,1.6-1.7V8.4c0-4.6-3.7-8.4-8.3-8.4H5.7C2.6,0,0.1,2.4,0,5.4c0,1.4,0.5,2.8,1.4,3.8
		c0.8,1,1.9,1.6,3.2,1.8l0.2,0.6c0.1,0.2,0.1,0.3,0.2,0.5c0,0,0,0.1,0,0.1L3.4,27.4C3.4,28,3.1,28.6,2.6,29l-0.8,0.6
		c-0.4,0.3-0.6,0.8-0.6,1.3v0.6c0,0.3,0.2,0.5,0.5,0.5h27.1c0.3,0,0.5-0.2,0.5-0.5v-0.6c0-1.2-1-2.2-2.2-2.2h-0.5
		c-0.2-0.1-0.5-0.2-0.6-0.8c0-0.2-0.1-0.3-0.1-0.4c3.1-0.5,5.5-3.3,5.5-6.6v-5.1h0c0.3,0,0.5-0.2,0.5-0.5
		C32,14.9,31.8,14.6,31.5,14.6z M22.7,14.6h-7.8c-0.3,0-0.5,0.2-0.5,0.5c0,0.3,0.2,0.5,0.5,0.5h0v5.1c0,3.3,2.4,6.1,5.5,6.6
		c0,0.3-0.1,0.8-0.3,1C14.3,27.2,9.9,22,9.9,15.7v-3.4c0,0,0-0.1,0-0.1c0.1-0.1,0.2-0.3,0.2-0.5l0.2-0.6h8v0.6
		c0,0.9,0.7,1.7,1.6,1.7h2.8L22.7,14.6L22.7,14.6z M26.5,12.4h-6.6c-0.3,0-0.6-0.3-0.6-0.6v-0.6h7.8v0.6
		C27.1,12.1,26.8,12.4,26.5,12.4z M2.1,8.6C1.4,7.7,1,6.6,1,5.5C1.1,3,3.2,1.1,5.7,1.1h14.2c3.5,0,6.5,2.6,7.1,6
		c0,0.1-0.1,0.3-0.2,0.3H15.4c-0.3,0-0.5,0.2-0.5,0.5s0.2,0.5,0.5,0.5h11.6c0,0,0,0,0,0v1.5c0,0.1-0.1,0.2-0.2,0.2h-8.1h-8.7
		c-0.3,0-0.6,0.2-0.7,0.5l-0.2,0.6c-0.1,0.3-0.4,0.6-0.8,0.6H6.5c-0.4,0-0.7-0.2-0.8-0.6l-0.3-0.8c-0.1-0.2-0.2-0.3-0.4-0.4
		C3.9,10,2.9,9.4,2.1,8.6z M28.2,30.9L28.2,30.9l-26.1,0v0c0-0.2,0.1-0.4,0.2-0.5l0.8-0.6c0.7-0.6,1.2-1.4,1.3-2.3L6,12.8
		c0.1,0,0.2,0,0.3,0h2.3c0.1,0,0.2,0,0.3,0v2.9c0,7.7,6.2,14,13.8,14h3.9l0,0l0,0H27C27.7,29.7,28.2,30.3,28.2,30.9z M24.9,28.1
		c0,0.2,0.1,0.4,0.2,0.6h-2.5c-0.5,0-0.9,0-1.4-0.1c0.1-0.2,0.2-0.5,0.2-0.8c0-0.1,0-0.2,0-0.3c0,0,0,0,0,0h3.3c0,0,0,0,0,0
		C24.9,27.7,24.9,27.9,24.9,28.1z M30.4,20.8c0,3.1-2.5,5.7-5.6,5.7h-3.3c-3.1,0-5.6-2.5-5.6-5.7v-4.9c0-0.1,0.1-0.2,0.2-0.2h6.5
		v0.4c-0.5,0.7-2.8,4.2-2.8,6.4c0,1.8,1.5,3.3,3.3,3.3c1.8,0,3.3-1.5,3.3-3.3c0-2.1-2.3-5.6-2.8-6.3v-0.4h6.5c0.1,0,0.2,0.1,0.2,0.2
		L30.4,20.8L30.4,20.8z M20.9,22.5c0-1.2,0.9-3,1.7-4.4v6.6C21.7,24.4,20.9,23.5,20.9,22.5z M23.7,18.1c0.8,1.4,1.7,3.2,1.7,4.4
		c0,1.1-0.7,2-1.7,2.2V18.1z"/>
</g>
</svg>
