<?xml version="1.0" encoding="utf-8"?>
<!-- Generator: Adobe Illustrator 21.1.0, SVG Export Plug-In . SVG Version: 6.00 Build 0)  -->
<svg version="1.1" id="Capa_1" xmlns="http://www.w3.org/2000/svg" xmlns:xlink="http://www.w3.org/1999/xlink" x="0px" y="0px"
	 viewBox="0 0 467.8 459" style="enable-background:new 0 0 467.8 459;" xml:space="preserve">
<g>
	<path d="M112.7,136.2c10.4,0,19.3-6.8,22.5-16.1h58.3c4.2,0,7.6-3.4,7.6-7.6s-3.4-7.6-7.6-7.6h-58.3c-3.2-9.4-12.1-16.1-22.5-16.1
		c-13.1,0-23.7,10.6-23.7,23.7S99.6,136.2,112.7,136.2z M112.7,103.9c4.7,0,8.6,3.8,8.6,8.6s-3.9,8.6-8.6,8.6s-8.6-3.8-8.6-8.6
		S107.9,103.9,112.7,103.9z"/>
	<path d="M460.3,209.8H346.6v-17.1h40.9c13.1,0,23.7-10.6,23.7-23.7v-48.4C411.2,54.1,357.1,0,290.5,0H82.9C38.2,0,1.1,35.1,0,78.2
		c-0.5,20.3,6.6,39.8,20,55c12.2,13.8,28.5,22.9,46.5,26l3,9.1c0.8,2.5,2,4.8,3.5,6.8c-0.1,0.4-0.2,0.8-0.2,1.2L50.4,392.8
		c-0.9,9.1-5.7,17.4-13,22.9l-11.7,8.8c-5.9,4.5-9.5,11.5-9.5,19v8.1c0,4.2,3.4,7.6,7.6,7.6h396.1c4.2,0,7.6-3.4,7.6-7.6v-8.1
		c0-17.5-14.3-31.8-31.8-31.8h-6.9c-2.4-0.8-6.9-3.2-9-12c-0.5-2.3-0.8-4.5-0.9-6.4c45.8-7.4,80.9-47.2,80.9-95.1V225h0.5
		c4.2,0,7.6-3.4,7.6-7.6C467.8,213.2,464.4,209.8,460.3,209.8z M331.4,209.8H217.7c-4.2,0-7.6,3.4-7.6,7.6c0,4.2,3.4,7.6,7.6,7.6
		h0.5v73.1c0,47.8,35.1,87.6,81,95.1c-0.3,4.7-1.4,10.8-4.8,14.8c-85.4-17-149.9-92.4-149.9-182.5V177c0-0.7-0.1-1.3-0.2-1.9
		c1.5-2,2.7-4.3,3.5-6.7l2.7-8h116.3v8.6c0,13.1,10.7,23.7,23.7,23.7h40.9L331.4,209.8L331.4,209.8z M387.5,177.5h-97
		c-4.7,0-8.6-3.8-8.6-8.6v-8.6h114.2v8.6C396.1,173.7,392.2,177.5,387.5,177.5z M31.4,123.2C20.5,110.9,14.8,95,15.2,78.6
		c0.8-35,31.2-63.5,67.7-63.5h207.6c52.9,0,96.8,39,104.4,89.8H225.8c-4.2,0-7.6,3.4-7.6,7.6s3.4,7.6,7.6,7.6h170.3
		c0,0.2,0,0.3,0,0.5v24.7H274.3H145c-3.3,0-6.2,2.1-7.2,5.2l-4.4,13.2c-1.2,3.5-4.4,5.9-8.1,5.9H92.1c-3.7,0-7-2.4-8.2-5.9L79.4,150
		c-0.9-2.8-3.4-4.8-6.4-5.2C57,143.1,42.2,135.4,31.4,123.2z M412.3,443.4v0.5H31.3v-0.5c0-2.7,1.3-5.2,3.4-6.9l11.7-8.8
		c10.7-8,17.6-20.2,18.9-33.4l21.8-210.2c1.6,0.3,3.2,0.5,4.8,0.5h33.2c1.4,0,2.7-0.1,4.1-0.4v41.2c0,111,90.4,201.3,201.6,201.3
		h56.6c0,0,0,0,0,0c0,0,0,0,0,0h8.1C404.8,426.7,412.3,434.2,412.3,443.4z M364.8,402.6c0.7,3.3,1.8,6.3,3.2,9h-37.1
		c-6.9,0-13.7-0.4-20.3-1.1c1.6-3.4,2.7-7.3,3.3-11.6c0.2-1.6,0.4-3.1,0.5-4.5c0.1,0,0.3,0,0.4,0h48.5c0.1,0,0.3,0,0.4,0
		C363.8,396.9,364.2,399.7,364.8,402.6z M444.6,298.1c0,44.8-36.5,81.2-81.3,81.2h-48.5c-44.9,0-81.3-36.4-81.3-81.2V225h98v6.2
		c-7.4,10.7-40.4,60-40.4,91.2c0,26.4,21.5,47.9,48,47.9s48-21.5,48-47.9c0-30.2-33.1-80.4-40.4-91.1V225h98V298.1z M306.2,322.3
		c0-16.9,13.4-43.4,25.3-63.2v95.1C317,350.8,306.2,337.8,306.2,322.3z M346.6,259.4c11.9,20,25.3,46.6,25.3,62.9
		c0,15.5-10.8,28.5-25.3,31.9V259.4z"/>
	<path d="M305.2,48.9c20.5,4.2,38.2,17,48.8,35.1c1.4,2.4,3.9,3.8,6.6,3.8c1.3,0,2.6-0.3,3.8-1c3.6-2.1,4.9-6.7,2.8-10.3
		c-12.7-21.9-34.2-37.3-58.9-42.4c-4.1-0.8-8.1,1.8-8.9,5.9C298.4,44.1,301,48,305.2,48.9z"/>
	<path d="M258.2,47.4h16.2c4.2,0,7.6-3.4,7.6-7.6s-3.4-7.6-7.6-7.6h-16.2c-4.2,0-7.6,3.4-7.6,7.6S254,47.4,258.2,47.4z"/>
	<path d="M407.8,333.6c1.2,0.7,2.6,1.1,3.9,1.1c2.6,0,5.1-1.3,6.5-3.7c6-9.9,9.2-21.3,9.2-33v-48.4c0-4.2-3.4-7.6-7.6-7.6
		s-7.6,3.4-7.6,7.6v48.4c0,8.9-2.4,17.6-7,25.2C403.1,326.8,404.3,331.5,407.8,333.6z"/>
</g>
</svg>
