<?xml version="1.0" encoding="utf-8"?><svg xmlns="http://www.w3.org/2000/svg" xmlns:xlink="http://www.w3.org/1999/xlink"><symbol viewBox="0 0 612.01 612.01" id="computer" xmlns="http://www.w3.org/2000/svg"><path d="M30.605 20.39h316.2c5.631 0 10.2-4.56 10.2-10.18 0-5.651-4.569-10.21-10.2-10.21h-326.4C9.134 0 .005 9.129.005 20.39V428.4c0 11.261 9.129 20.391 20.4 20.391h244.8v142.83h-163.2c-5.63 0-10.2 4.56-10.2 10.18 0 5.641 4.57 10.21 10.2 10.21h244.8c5.631 0 10.2-4.569 10.2-10.21 0-5.62-4.569-10.18-10.2-10.18h-61.2V448.79h61.2c5.631 0 10.2-4.56 10.2-10.18 0-5.651-4.569-10.211-10.2-10.211h-316.2c-5.63 0-10.2-4.559-10.2-10.199V30.6c0-5.641 4.57-10.21 10.2-10.21zm530.4 183.63h-132.6c-5.631 0-10.2 4.549-10.2 10.18 0 5.661 4.569 10.21 10.2 10.21h132.6c5.631 0 10.2-4.56 10.2-10.21 0-5.62-4.569-10.18-10.2-10.18zm-66.3 224.379c-8.446 0-15.3 6.854-15.3 15.32 0 8.415 6.854 15.28 15.3 15.28 8.445 0 15.3-6.865 15.3-15.28 0-8.465-6.844-15.32-15.3-15.32zM591.604 0h-193.8c-11.261 0-20.399 9.129-20.399 20.39v571.23c0 11.24 9.129 20.39 20.399 20.39h193.8c11.271 0 20.4-9.149 20.4-20.39V20.39C612.005 9.129 602.876 0 591.604 0zm0 581.41c0 5.62-4.569 10.21-10.199 10.21h-173.4c-5.631 0-10.2-4.59-10.2-10.21V30.6c0-5.641 4.569-10.21 10.2-10.21h173.4c5.63 0 10.199 4.569 10.199 10.21v550.81zm-30.599-418.18h-132.6c-5.631 0-10.2 4.56-10.2 10.18 0 5.641 4.569 10.21 10.2 10.21h132.6c5.631 0 10.2-4.569 10.2-10.21 0-5.631-4.569-10.18-10.2-10.18zm0-122.43h-132.6c-5.631 0-10.2 4.569-10.2 10.21v61.19c0 5.641 4.569 10.21 10.2 10.21h132.6c5.631 0 10.2-4.57 10.2-10.21V51.01c0-5.641-4.569-10.21-10.2-10.21zM540.604 102h-91.8c-10.098.316-10.2-1.071-10.2-10.2V71.42c-.315-10.118.429-9.904 10.2-10.21h91.8c9.456.306 9.884.745 10.2 10.21v20.39c.317 9.761-.743 9.874-10.2 10.19z"/></symbol><symbol viewBox="0 0 464 464" id="cpu" xmlns="http://www.w3.org/2000/svg"><path d="M312 128H152c-13.232 0-24 10.768-24 24v160c0 13.232 10.768 24 24 24h160c13.232 0 24-10.768 24-24V152c0-13.232-10.768-24-24-24zm8 184c0 4.416-3.584 8-8 8H152c-4.408 0-8-3.584-8-8V152c0-4.416 3.592-8 8-8h160c4.416 0 8 3.584 8 8v160z"/><path d="M456 176c4.424 0 8-3.576 8-8 0-4.424-3.576-8-8-8h-56v-48h56c4.424 0 8-3.576 8-8s-3.576-8-8-8h-56.808C396 80.352 383.648 68 368 64.808V8c0-4.424-3.576-8-8-8s-8 3.576-8 8v56h-48V8c0-4.424-3.576-8-8-8s-8 3.576-8 8v56h-48V8c0-4.424-3.584-8-8-8s-8 3.576-8 8v56h-48V8c0-4.424-3.584-8-8-8s-8 3.576-8 8v56h-48V8c0-4.424-3.584-8-8-8s-8 3.576-8 8v56.808C80.352 68 68 80.352 64.808 96H8c-4.416 0-8 3.576-8 8s3.584 8 8 8h56v48H8c-4.416 0-8 3.576-8 8s3.584 8 8 8h56v48H8c-4.416 0-8 3.576-8 8s3.584 8 8 8h56v48H8c-4.416 0-8 3.576-8 8s3.584 8 8 8h56v48H8c-4.416 0-8 3.576-8 8s3.584 8 8 8h56.808C68 383.648 80.352 396 96 399.192V456c0 4.424 3.584 8 8 8s8-3.576 8-8v-56h48v56c0 4.424 3.584 8 8 8s8-3.576 8-8v-56h48v56c0 4.424 3.584 8 8 8s8-3.576 8-8v-56h48v56c0 4.424 3.576 8 8 8s8-3.576 8-8v-56h48v56c0 4.424 3.576 8 8 8s8-3.576 8-8v-56.808C383.648 396 396 383.648 399.192 368H456c4.424 0 8-3.576 8-8s-3.576-8-8-8h-56v-48h56c4.424 0 8-3.576 8-8s-3.576-8-8-8h-56v-48h56c4.424 0 8-3.576 8-8s-3.576-8-8-8h-56v-48h56zm-72 184c0 13.232-10.768 24-24 24H104c-13.232 0-24-10.768-24-24V104c0-13.232 10.768-24 24-24h256c13.232 0 24 10.768 24 24v256z"/><path d="M205.656 162.344a7.991 7.991 0 0 0-11.312 0l-32 32a7.991 7.991 0 0 0 0 11.312A7.978 7.978 0 0 0 168 208a7.978 7.978 0 0 0 5.656-2.344l32-32a7.991 7.991 0 0 0 0-11.312zm32 32a7.991 7.991 0 0 0-11.312 0l-64 64a7.991 7.991 0 0 0 0 11.312A7.978 7.978 0 0 0 168 272a7.978 7.978 0 0 0 5.656-2.344l64-64a7.991 7.991 0 0 0 0-11.312z"/></symbol><symbol viewBox="0 0 438.949 438.949" id="gamepad" xmlns="http://www.w3.org/2000/svg"><path d="M170.668 175.277h-40.4v-40c0-4.4-3.6-8-8-8s-8 3.6-8 8v40h-39.6c-4.4 0-8 3.6-8 8s3.6 8 8 8h39.6v40c0 4.4 3.6 8 8 8s8-3.6 8-8v-40h40.4c4.4 0 8-3.6 8-8s-3.6-8-8-8zm95.6-8l-2.8 2.8c-6.4 6.4-6.4 16.4 0 22.8 3.2 2.8 7.2 4.4 11.2 4.4s8-1.6 11.2-4.8l2.8-2.8c6.4-6.4 6.4-16.4 0-22.8-6.4-6.4-16.4-6-22.4.4zm40.8-42.8l-2.4 3.2c-6.4 6.4-6.4 16.4 0 22.8 3.2 2.8 7.2 4.4 11.2 4.4s8-1.6 11.2-4.8l2.8-2.8c6.4-6.4 6.4-16.4 0-22.8-6.4-6.4-16.4-6.4-22.8 0zm.4 85.2l-2.8 2.8c-6.4 6.4-6.4 16.4 0 22.8 3.2 3.2 7.2 4.8 11.2 4.8s8-1.6 11.2-4.8l2.8-2.8c6.4-6.4 6.4-16.4 0-22.8-6-6.4-16.4-6.4-22.4 0zm43.6-42.4l-2.8 2.8c-6.4 6.4-6.4 16.4 0 22.8 3.2 3.2 7.2 4.8 11.2 4.8s8-1.6 11.2-4.8l2.8-2.8c6.4-6.4 6.4-16.4 0-22.8-6-6.4-16.4-6.4-22.4 0z"/><path d="M422.668 144.477l-4.8-20v-.8c-12-36.4-45.6-60.8-83.6-60.4h-6.4c-8 0-16 1.2-24.8 3.6l-43.2 12.8c-8 2.4-16.8 3.6-26 3.6h-29.2c-9.2 0-18-1.2-26-3.6l-43.2-12.8c-8.4-2-16.8-3.2-24.8-3.2h-6c-38 0-71.6 24.4-83.6 60.4v.8l-4.8 20c-12 51.2-17.6 104.4-16 158l.8 30.4c.4 12 6 23.6 15.2 31.6 8 7.2 18.4 10.8 28.8 10.8 1.6 0 2.8 0 4.4-.4l9.2-.8c22.8-2.4 43.2-16 53.6-36.4l14.8-28c12.4-24 36.8-38.8 63.6-38.8h64c27.6 0 52.8 16 64.8 40.8l11.6 24.4c10.4 21.6 30.8 35.6 54.4 38l4 .4c12 1.2 24-2.8 33.2-10.8s14.8-19.6 15.2-32l.8-30c1.6-52.4-3.6-105.6-16-157.6zm0 157.6l-.8 30c-.4 8-3.6 15.2-9.6 20.4s-13.2 7.6-21.2 6.8l-4-.4c-18-1.6-33.6-12.8-41.6-29.2l-11.6-24.4c-14.4-30-45.6-49.6-79.2-49.6h-64c-32.8 0-62.8 18.4-78 47.6l-14.8 28c-8 15.2-23.6 26-40.8 27.6l-9.2.8c-7.6.8-15.2-1.6-21.2-6.8-6-5.2-9.2-12.4-9.6-20.4l-.8-30.4c-1.6-52 3.6-104 15.2-154l4.8-19.6c10-29.2 37.2-48.8 68.4-48.8h6c6.4 0 13.2.8 20 2.8l43.2 12.8c9.6 2.8 20 4.4 30.8 4.4h29.2c10.8 0 21.2-1.6 30.8-4.4l43.2-12.8c6.8-2 13.6-2.8 20.4-2.8h7.2c30 0 57.6 20 67.6 49.2l4.8 19.6c11.2 50 16.4 102 14.8 153.6z"/></symbol><symbol viewBox="0 0 115.383 115.383" id="laptop" xmlns="http://www.w3.org/2000/svg"><path d="M11.025 87.78h93.333c1.931 0 3.5-1.57 3.5-3.5v-60c0-1.93-1.569-3.5-3.5-3.5H11.025c-1.93 0-3.5 1.57-3.5 3.5v60c0 1.93 1.571 3.5 3.5 3.5zm-.5-63.5a.5.5 0 0 1 .5-.5h93.333a.5.5 0 0 1 .5.5v60a.5.5 0 0 1-.5.5H11.025a.5.5 0 0 1-.5-.5v-60zm104.858 66.178v2.801c0 .742-.602 1.344-1.344 1.344H1.344A1.344 1.344 0 0 1 0 93.259v-2.801h47.387c.234.781.95 1.354 1.807 1.354H66.19a1.89 1.89 0 0 0 1.807-1.354h47.386z"/></symbol><symbol viewBox="0 0 508.017 508.017" id="microphone" xmlns="http://www.w3.org/2000/svg"><path d="M235.202 222.157l28.99-28.991 11.597 11.596-28.99 28.991z"/><path d="M438.209 30.718c-39.9-39.9-108.8-42-150.8 0-32 32-31.2 73.2-31.2 73.2l2.7 2.7-220.3 266.9 23 23c-10.5 13.9-12.9 31.8-6.1 48.3 7.8 18.7 25.2 30.4 45.5 30.4h56.8c18.1 0 32.8 14.7 32.8 32.8h16.4c0-27.1-22.1-49.2-49.2-49.2h-56.8c-16.2 0-26.3-10.5-30.3-20.3-3.4-8.3-4.1-20 2.7-30.3l22.2 22.2 266.7-220.4 2.7 2.7s43.1-1.1 73.2-31.2c41.6-41.6 41.6-109.2 0-150.8zm-341.6 377.6l-35.9-35.9 36-43.6 43.4 43.4-43.5 36.1zm56.3-46.6l-45.6-45.6 163.4-197.8 80 80.1-197.8 163.3zm218.5-165.8l-98.3-98.3c1.2-12.5 5-24.5 11-35.4l122.7 122.7c-10.8 6-22.8 9.8-35.4 11zm55.2-26c-1.9 1.9-4 3.8-6.1 5.5l-127-127c1.7-2.1 3.6-4.1 5.5-6.1 35.3-35.3 93.9-33.7 127.6 0 35.2 35.2 35.2 92.4 0 127.6z"/></symbol><symbol viewBox="0 0 32 32" id="mixer" xmlns="http://www.w3.org/2000/svg"><path d="M31.5 14.6h-7.8v-1.2h2.8c.9 0 1.6-.7 1.6-1.7V8.4c0-4.6-3.7-8.4-8.3-8.4H5.7C2.6 0 .1 2.4 0 5.4c0 1.4.5 2.8 1.4 3.8.8 1 1.9 1.6 3.2 1.8l.2.6c.1.2.1.3.2.5v.1L3.4 27.4c0 .6-.3 1.2-.8 1.6l-.8.6c-.4.3-.6.8-.6 1.3v.6c0 .3.2.5.5.5h27.1c.3 0 .5-.2.5-.5v-.6c0-1.2-1-2.2-2.2-2.2h-.5c-.2-.1-.5-.2-.6-.8 0-.2-.1-.3-.1-.4 3.1-.5 5.5-3.3 5.5-6.6v-5.1c.3 0 .5-.2.5-.5.1-.4-.1-.7-.4-.7zm-8.8 0h-7.8c-.3 0-.5.2-.5.5s.2.5.5.5v5.1c0 3.3 2.4 6.1 5.5 6.6 0 .3-.1.8-.3 1C14.3 27.2 9.9 22 9.9 15.7v-3.5c.1-.1.2-.3.2-.5l.2-.6h8v.6c0 .9.7 1.7 1.6 1.7h2.8v1.2zm3.8-2.2h-6.6c-.3 0-.6-.3-.6-.6v-.6h7.8v.6c0 .3-.3.6-.6.6zM2.1 8.6C1.4 7.7 1 6.6 1 5.5 1.1 3 3.2 1.1 5.7 1.1h14.2c3.5 0 6.5 2.6 7.1 6 0 .1-.1.3-.2.3H15.4c-.3 0-.5.2-.5.5s.2.5.5.5H27v1.5c0 .1-.1.2-.2.2H10c-.3 0-.6.2-.7.5l-.2.6c-.1.3-.4.6-.8.6H6.5c-.4 0-.7-.2-.8-.6l-.3-.8c-.1-.2-.2-.3-.4-.4-1.1 0-2.1-.6-2.9-1.4zm26.1 22.3H2.1c0-.2.1-.4.2-.5l.8-.6c.7-.6 1.2-1.4 1.3-2.3L6 12.8h2.9v2.9c0 7.7 6.2 14 13.8 14H27c.7 0 1.2.6 1.2 1.2zm-3.3-2.8c0 .2.1.4.2.6h-2.5c-.5 0-.9 0-1.4-.1.1-.2.2-.5.2-.8v-.3h3.3c.2.2.2.4.2.6zm5.5-7.3c0 3.1-2.5 5.7-5.6 5.7h-3.3c-3.1 0-5.6-2.5-5.6-5.7v-4.9c0-.1.1-.2.2-.2h6.5v.4c-.5.7-2.8 4.2-2.8 6.4 0 1.8 1.5 3.3 3.3 3.3 1.8 0 3.3-1.5 3.3-3.3 0-2.1-2.3-5.6-2.8-6.3v-.4h6.5c.1 0 .2.1.2.2l.1 4.8zm-9.5 1.7c0-1.2.9-3 1.7-4.4v6.6c-.9-.3-1.7-1.2-1.7-2.2zm2.8-4.4c.8 1.4 1.7 3.2 1.7 4.4 0 1.1-.7 2-1.7 2.2v-6.6z"/></symbol><symbol viewBox="0 0 33 33" id="monitor" xmlns="http://www.w3.org/2000/svg"><path d="M30.5 26.109h-28a2.503 2.503 0 0 1-2.5-2.5V4.61c0-1.379 1.122-2.5 2.5-2.5h28c1.378 0 2.5 1.121 2.5 2.5v18.999c0 1.379-1.122 2.5-2.5 2.5zM2.5 3.11c-.827 0-1.5.673-1.5 1.5v18.999c0 .827.673 1.5 1.5 1.5h28c.827 0 1.5-.673 1.5-1.5V4.61c0-.827-.673-1.5-1.5-1.5h-28zm20.375 27.78h-12.75a.5.5 0 0 1 0-1h12.75a.5.5 0 0 1 0 1z"/><path d="M16.5 30.89a.5.5 0 0 1-.5-.5v-4.781a.5.5 0 0 1 1 0v4.781a.5.5 0 0 1-.5.5z"/></symbol><symbol viewBox="0 0 60 60" id="photo-camera" xmlns="http://www.w3.org/2000/svg"><path d="M55.201 15.5h-8.524l-4-10H17.323l-4 10H12v-5H6v5H4.799A4.803 4.803 0 0 0 0 20.299v29.368A4.838 4.838 0 0 0 4.833 54.5h50.334A4.838 4.838 0 0 0 60 49.667V20.299a4.803 4.803 0 0 0-4.799-4.799zM8 12.5h2v3H8v-3zm50 37.167a2.836 2.836 0 0 1-2.833 2.833H4.833A2.836 2.836 0 0 1 2 49.667V20.299A2.803 2.803 0 0 1 4.799 17.5h9.878l4-10h22.646l4 10h9.878A2.803 2.803 0 0 1 58 20.299v29.368z"/><path d="M30 14.5c-9.925 0-18 8.075-18 18s8.075 18 18 18 18-8.075 18-18-8.075-18-18-18zm0 34c-8.822 0-16-7.178-16-16s7.178-16 16-16 16 7.178 16 16-7.178 16-16 16z"/><path d="M30 20.5c-6.617 0-12 5.383-12 12s5.383 12 12 12 12-5.383 12-12-5.383-12-12-12zm0 22c-5.514 0-10-4.486-10-10s4.486-10 10-10 10 4.486 10 10-4.486 10-10 10zm22-23c-2.206 0-4 1.794-4 4s1.794 4 4 4 4-1.794 4-4-1.794-4-4-4zm0 6c-1.103 0-2-.897-2-2s.897-2 2-2 2 .897 2 2-.897 2-2 2z"/></symbol><symbol viewBox="0 0 300 300" id="router" xmlns="http://www.w3.org/2000/svg"><path d="M275.806 208.065H48.387V77.419c0-8.003-6.513-14.516-14.516-14.516s-14.516 6.513-14.516 14.516v131.134C8.327 210.803 0 220.577 0 232.258v29.032c0 9.895 5.985 18.397 14.516 22.142v6.89c0 5.337 4.34 9.677 9.677 9.677h19.355c5.337 0 9.677-4.34 9.677-9.677v-4.839h188.71v4.839c0 5.337 4.34 9.677 9.677 9.677h19.355c5.337 0 9.677-4.34 9.677-9.677v-5.327C291.673 282.745 300 272.977 300 261.29v-29.032c0-13.34-10.853-24.193-24.194-24.193zM33.871 72.581a4.847 4.847 0 0 1 4.839 4.839v130.645h-9.677V77.419h-.001a4.846 4.846 0 0 1 4.839-4.838zm9.678 217.742H24.194v-4.839h19.355v4.839zm227.419 0h-19.355v-4.839h19.355v4.839zm19.355-29.033c0 8.003-6.513 14.516-14.516 14.516H24.194c-8.003 0-14.516-6.513-14.516-14.516v-29.032c0-8.003 6.513-14.516 14.516-14.516h251.613c8.003 0 14.516 6.513 14.516 14.516v29.032z"/><path d="M96.774 227.419H29.032c-5.337 0-9.677 4.34-9.677 9.677v19.355c0 5.337 4.34 9.677 9.677 9.677h67.742c5.337 0 9.677-4.34 9.677-9.677v-19.355c.001-5.336-4.34-9.677-9.677-9.677zm-67.742 29.033v-19.355h67.742l.005 19.355H29.032zm241.936-14.517h9.677v9.677h-9.677zm-19.355 0h9.677v9.677h-9.677zm-19.355 0h9.677v9.677h-9.677zm-19.355 0h9.677v9.677h-9.677zM96.774 125.806c8.003 0 14.516-6.513 14.516-14.516s-6.513-14.516-14.516-14.516-14.516 6.513-14.516 14.516 6.513 14.516 14.516 14.516zm0-19.353a4.847 4.847 0 0 1 4.839 4.839 4.847 4.847 0 0 1-4.839 4.839 4.847 4.847 0 0 1-4.839-4.839 4.847 4.847 0 0 1 4.839-4.839zm29.032 4.837h9.677c0-21.344-17.366-38.71-38.71-38.71v9.677c16.012.001 29.033 13.022 29.033 29.033z"/><path d="M150 111.29h9.677c0-34.684-28.219-62.903-62.903-62.903v9.677C126.121 58.065 150 81.944 150 111.29z"/><path d="M174.194 111.29h9.677c0-48.024-39.073-87.097-87.097-87.097v9.677c42.687.001 77.42 34.733 77.42 77.42z"/><path d="M198.387 111.29h9.677C208.065 49.927 158.139 0 96.774 0v9.677c56.032 0 101.613 45.581 101.613 101.613z"/></symbol><symbol viewBox="0 0 269.13 269.13" id="smartphone-and-tablet" xmlns="http://www.w3.org/2000/svg"><path d="M123.015 21.026h-25.2c-2.52 0-4.2 1.682-4.2 4.205s1.68 4.205 4.2 4.205h25.2c2.52 0 4.2-1.682 4.2-4.205s-1.68-4.205-4.2-4.205zm-43.26 1.261c-.84.841-1.26 1.682-1.26 2.944s.42 2.103 1.26 2.944c.84.841 2.1 1.262 2.94 1.262 1.26 0 2.1-.421 2.94-1.262.84-.841 1.26-1.682 1.26-2.944s-.42-2.103-1.26-2.944c-1.26-1.682-4.2-1.682-5.88 0zm34.86 107.653c.84.841 2.1 1.262 2.94 1.262.84 0 2.1-.421 2.94-1.262 1.68-1.682 1.68-4.205 0-5.887l-16.8-16.821c-1.68-1.682-4.2-1.682-5.88 0-1.68 1.682-1.68 4.205 0 5.887l16.8 16.821zm-47.04-19.344c-1.68 1.682-1.68 4.205 0 5.887l60.06 60.134c.84.841 2.1 1.262 2.94 1.262.84 0 2.1-.421 2.94-1.262 1.68-1.682 1.68-4.205 0-5.887l-60.06-60.134c-1.68-1.682-4.2-1.682-5.88 0zm44.94 145.919c7.14 0 12.6-5.467 12.6-12.615 0-7.149-5.46-12.615-12.6-12.615s-12.6 5.467-12.6 12.615c0 7.148 5.46 12.615 12.6 12.615zm0-16.821c2.52 0 4.2 1.682 4.2 4.205s-1.68 4.205-4.2 4.205c-2.52 0-4.2-1.682-4.2-4.205 0-2.102 1.68-4.205 4.2-4.205z"/><path d="M233.055 75.693h-24.78l.84-58.872c0-9.251-7.56-16.821-16.8-16.821h-159.6c-9.24 0-16.8 7.569-16.8 16.821V252.31c0 9.251 7.56 16.821 16.8 16.821h200.34c11.76 0 20.16-9.251 20.16-22.287V97.98c0-13.036-8.4-22.287-20.16-22.287zM89.415 92.934l-42.42-42.472h109.62c2.52 0 4.2-1.682 4.2-4.205s-1.68-4.205-4.2-4.205h-121.8c-2.52 0-4.2 1.682-4.2 4.205v176.617c0 2.523 1.68 4.205 4.2 4.205h100.8v19.764c0 5.467 2.1 10.092 5.88 13.877H32.715c-4.62 0-8.4-3.785-8.4-8.41V16.821c0-4.626 3.78-8.41 8.4-8.41h159.6c4.62 0 8.4 3.785 8.4 8.41l-.84 58.872h-9.66V46.257c0-2.523-1.68-4.205-4.2-4.205h-8.4c-2.52 0-4.2 1.682-4.2 4.205s1.68 4.205 4.2 4.205h4.2v25.231h-21.42c-12.6 0-24.78 11.354-24.78 23.128v119.847h-96.6V54.247l44.52 44.575c.84.841 2.1 1.262 2.94 1.262s2.1-.421 2.94-1.262c1.68-1.683 1.68-4.206 0-5.888zm155.4 153.909c0 6.728-3.78 13.877-11.76 13.877h-72.66c-7.14 0-16.38-6.308-16.38-13.877V98.821c0-7.149 7.98-14.718 16.38-14.718h72.66c7.98 0 11.76 7.149 11.76 13.877v148.863z"/><path d="M196.515 241.797c-4.62 0-8.4 3.785-8.4 8.41s3.78 8.41 8.4 8.41c4.62 0 8.4-3.785 8.4-8.41s-3.78-8.41-8.4-8.41zm0 12.615c-2.1 0-4.2-1.682-4.2-4.205 0-2.103 1.68-4.205 4.2-4.205 2.1 0 4.2 1.682 4.2 4.205s-2.1 4.205-4.2 4.205zm-10.5-153.488h16.8c2.52 0 4.2-1.682 4.2-4.205s-1.68-4.205-4.2-4.205h-16.8c-2.52 0-4.2 1.682-4.2 4.205s1.68 4.205 4.2 4.205zm-10.5.42c1.26 0 2.1-.421 2.94-1.262.84-.841 1.26-2.103 1.26-2.944 0-.841-.42-2.103-1.26-2.944-1.68-1.682-4.2-1.682-5.88 0-.84.841-1.26 2.103-1.26 2.944 0 1.262.42 2.103 1.26 2.944.84.842 2.1 1.262 2.94 1.262zm60.9 3.785h-84c-2.52 0-4.2 1.682-4.2 4.205v126.155c0 2.523 1.68 4.205 4.2 4.205h84c2.52 0 4.2-1.682 4.2-4.205V109.334c0-2.523-1.68-4.205-4.2-4.205zm-4.2 126.155h-75.6V113.539h75.6v117.745z"/></symbol><symbol viewBox="0 0 473.631 473.631" id="washing-machine-for-laundry" xmlns="http://www.w3.org/2000/svg"><path d="M102.528 78.645h31.229c7.574 0 13.735-6.162 13.735-13.735V52.535c0-7.574-6.162-13.735-13.735-13.735h-31.229c-7.574 0-13.735 6.162-13.735 13.735V64.91c0 7.574 6.162 13.735 13.735 13.735zm-1.735-26.11c0-.94.795-1.735 1.735-1.735h31.229c.94 0 1.735.795 1.735 1.735V64.91c0 .94-.795 1.735-1.735 1.735h-31.229c-.94 0-1.735-.795-1.735-1.735V52.535zm193.425 28.71c12.418 0 22.52-10.104 22.52-22.522 0-12.419-10.102-22.522-22.52-22.522-12.42 0-22.524 10.104-22.524 22.522s10.104 22.522 22.524 22.522zm0-33.044c5.801 0 10.52 4.72 10.52 10.522s-4.719 10.522-10.52 10.522c-5.803 0-10.524-4.72-10.524-10.522s4.721-10.522 10.524-10.522zm68.107 33.044c12.414 0 22.514-10.104 22.514-22.522 0-12.419-10.1-22.522-22.514-22.522-12.424 0-22.529 10.104-22.529 22.522s10.105 22.522 22.529 22.522zm0-33.044c5.797 0 10.514 4.72 10.514 10.522s-4.717 10.522-10.514 10.522c-5.807 0-10.529-4.72-10.529-10.522s4.723-10.522 10.529-10.522z"/><path d="M400.933 0H72.698C48.177 0 28.229 19.949 28.229 44.469v384.693c0 24.521 19.949 44.469 44.469 44.469h328.234c24.521 0 44.469-19.949 44.469-44.469V44.47c0-24.521-19.947-44.47-44.468-44.47zM72.698 12h328.234c17.904 0 32.469 14.565 32.469 32.469v57.475H40.229V44.47C40.229 26.566 54.794 12 72.698 12zm328.235 449.631H72.698c-17.904 0-32.469-14.564-32.469-32.469V113.944h393.174v315.218c-.002 17.904-14.566 32.469-32.47 32.469z"/><path d="M354.7 252.698c-11.447-54.579-59.953-95.691-117.885-95.691-66.415 0-120.448 54.032-120.448 120.446a120.08 120.08 0 0 0 4.973 34.264c14.796 49.775 60.959 86.182 115.475 86.182 66.414 0 120.447-54.031 120.447-120.445 0-8.197-.826-16.204-2.395-23.945a5.715 5.715 0 0 0-.167-.811zm-117.884-83.691c49.462 0 91.294 33.285 104.278 78.629a119.243 119.243 0 0 0-7.143-.228c-36.729 0-59.564 18.269-81.648 35.937-21.41 17.129-41.635 33.309-74.155 33.309-12.567 0-28.069-3.76-46.096-11.159a108.203 108.203 0 0 1-3.684-28.043c0-59.797 48.65-108.445 108.448-108.445zm0 216.891c-44.577 0-82.952-27.036-99.604-65.57 15.473 5.523 29.206 8.326 40.936 8.326 36.729 0 59.567-18.27 81.653-35.938 21.41-17.129 41.633-33.308 74.15-33.308 3.137 0 6.404.159 9.879.468a108.585 108.585 0 0 1 1.432 17.575c.001 59.799-48.648 108.447-108.446 108.447z"/></symbol></svg>